<svg xmlns="http://www.w3.org/2000/svg" width="100%" height="100%" viewBox="0 0 16 16" class="icon">
	<g fill="none" fill-opacity="1" fill-rule="evenodd">
		<rect width="100%" height="100%" fill="none"></rect>
		<path fill="#aeb7c2" class="icon--graphics" d="M6.66666667,13 L6.66666667,5.66666667 C6.66666667,5.47916667 6.52083333,5.33333333 6.33333333,5.33333333 L5.66666667,5.33333333 C5.47916667,5.33333333 5.33333333,5.47916667 5.33333333,5.66666667 L5.33333333,13 C5.33333333,13.1875 5.47916667,13.3333333 5.66666667,13.3333333 L6.33333333,13.3333333 C6.52083333,13.3333333 6.66666667,13.1875 6.66666667,13 Z M10.6666667,13 L10.6666667,5.66666667 C10.6666667,5.47916667 10.5208333,5.33333333 10.3333333,5.33333333 L9.66666667,5.33333333 C9.47916667,5.33333333 9.33333333,5.47916667 9.33333333,5.66666667 L9.33333333,13 C9.33333333,13.1875 9.47916667,13.3333333 9.66666667,13.3333333 L10.3333333,13.3333333 C10.5208333,13.3333333 10.6666667,13.1875 10.6666667,13 Z M5.66666667,2.66666667 L10.3333333,2.66666667 L9.83333333,1.44791667 C9.80208333,1.40625 9.70833333,1.34375 9.65625,1.33333333 L6.35416667,1.33333333 C6.29166667,1.34375 6.20833333,1.40625 6.17708333,1.44791667 L5.66666667,2.66666667 Z M15.3333333,3 L15.3333333,3.66666667 C15.3333333,3.85416667 15.1875,4 15,4 L14,4 L14,13.875 C14,15.0208333 13.25,16 12.3333333,16 L3.66666667,16 C2.75,16 2,15.0625 2,13.9166667 L2,4 L1,4 C0.8125,4 0.666666667,3.85416667 0.666666667,3.66666667 L0.666666667,3 C0.666666667,2.8125 0.8125,2.66666667 1,2.66666667 L4.21875,2.66666667 L4.94791667,0.927083333 C5.15625,0.416666667 5.78125,0 6.33333333,0 L9.66666667,0 C10.21875,0 10.84375,0.416666667 11.0520833,0.927083333 L11.78125,2.66666667 L15,2.66666667 C15.1875,2.66666667 15.3333333,2.8125 15.3333333,3 Z"></path>
	</g>
</svg>