<svg xmlns="http://www.w3.org/2000/svg" width="16" height="16" viewBox="0 0 16 16">
  <g fill="none" fill-rule="evenodd">
    <rect width="16" height="16"/>
    <path fill="#000" d="M8.40258497,8.40231397 C9.55884039,9.95056558 10.7394511,11.2113533 12.2958804,11.2113533 L12.2958804,11.2113533 L12.4306347,11.2113533 L12.4306347,9.41172638 C12.4306347,9.27288328 12.5141894,9.14790672 12.6427215,9.09439613 C12.7708981,9.04124109 12.9184522,9.07075192 13.0169401,9.16906207 L13.0169401,9.16906207 L15.8766456,12.028412 C16.0410885,12.1930327 16.0410885,12.4621856 15.8768234,12.6264507 L15.8768234,12.6264507 L13.0171179,15.4861562 C12.9515185,15.5521111 12.8636972,15.5865997 12.7744536,15.5865997 C12.7300096,15.5865997 12.6855655,15.578422 12.6430771,15.5604666 C12.5149005,15.5076671 12.4309902,15.382335 12.4309902,15.2436697 L12.4309902,15.2436697 L12.4309902,13.4436872 L12.296236,13.4436872 C9.98194739,13.4436872 8.37680744,11.9745459 7.03477605,10.2831846 C7.37966158,9.83234451 7.70801395,9.3729712 8.02836639,8.92462 C8.1536985,8.74915504 8.27831951,8.57493452 8.40258497,8.40231397 Z M12.6427215,0.439724723 C12.7708981,0.386391908 12.9184522,0.41554718 13.0169401,0.514035112 L13.0169401,0.514035112 L15.8761123,3.37374064 C16.0407329,3.53836126 16.0407329,3.8075142 15.8761123,3.97213482 L15.8761123,3.97213482 L13.0164068,6.83166258 C12.9508074,6.89743971 12.862986,6.93228382 12.7737425,6.93228382 C12.7292985,6.93228382 12.6848544,6.92392835 12.642366,6.90615074 C12.5141894,6.85281793 12.4302791,6.72784136 12.4302791,6.58882049 L12.4302791,6.58882049 L12.4302791,4.78919355 L12.2955249,4.78919355 C10.3970545,4.78919355 9.05786749,6.66401976 7.63992572,8.64888935 C6.03443022,10.8966897 4.21507013,13.4440427 1.16763309,13.4440427 L1.16763309,13.4440427 L1.1163447,13.4440427 C0.499804547,13.4440427 -5.93472765e-15,12.9442382 -7.10542736e-15,12.327698 C-7.18093175e-15,11.7111579 0.499804547,11.2113533 1.1163447,11.2113533 L1.1163447,11.2113533 L1.16781087,11.2113533 C3.0662813,11.2113533 4.40546828,9.33688266 5.82358782,7.3518353 C7.42908332,5.10403493 9.24826564,2.55668192 12.2958804,2.55668192 L12.2958804,2.55668192 L12.4306347,2.55668192 L12.4306347,0.756699419 C12.4306347,0.618034101 12.5141894,0.492701986 12.6427215,0.439724723 Z M1.16745532,2.55668192 C3.48174393,2.55668192 5.08706165,4.02600097 6.42891527,5.7173623 C6.08402974,6.16784681 5.75567737,6.62739789 5.43532493,7.07574909 C5.30999282,7.25121405 5.18519403,7.42561236 5.06092857,7.5982329 C3.90467315,6.04980351 2.7240624,4.78919355 1.16763309,4.78919355 L1.16763309,4.78919355 L1.11625581,4.78919355 C0.499764751,4.78919355 3.62821206e-15,4.28942879 3.55271368e-15,3.67293773 C3.4772153e-15,3.05644667 0.499764751,2.55668192 1.11625581,2.55668192 L1.11625581,2.55668192 Z"/>
  </g>
</svg>
