<svg xmlns="http://www.w3.org/2000/svg" width="100%" height="100%" viewBox="0 0 16 16">
  <g fill="none" fill-opacity="1" fill-rule="evenodd">
    <rect width="16" height="16" fill="none"/>
    <path fill="#000000" class="icon--graphics"  d="M16,1.33333333 L16,6 C16,6.18055646 15.9340284,6.3368049 15.8020833,6.46875 C15.6701382,6.6006951 15.5138898,6.66666667 15.3333333,6.66666667 L10.6666667,6.66666667 C10.3749985,6.66666667 10.1701395,6.52777917 10.0520833,6.25 C9.93402719,5.97916531 9.98263781,5.73958437 10.1979167,5.53125 L11.6354167,4.09375 C10.6076337,3.14235635 9.39584031,2.66666667 8,2.66666667 C7.27777417,2.66666667 6.58854495,2.80729026 5.93229167,3.08854167 C5.27603839,3.36979307 4.70833573,3.7499976 4.22916667,4.22916667 C3.7499976,4.70833573 3.36979307,5.27603839 3.08854167,5.93229167 C2.80729026,6.58854495 2.66666667,7.27777417 2.66666667,8 C2.66666667,8.72222583 2.80729026,9.41145505 3.08854167,10.0677083 C3.36979307,10.7239616 3.7499976,11.2916643 4.22916667,11.7708333 C4.70833573,12.2500024 5.27603839,12.6302069 5.93229167,12.9114583 C6.58854495,13.1927097 7.27777417,13.3333333 8,13.3333333 C8.82639302,13.3333333 9.60763521,13.1527796 10.34375,12.7916667 C11.0798648,12.4305537 11.7013864,11.9201422 12.2083333,11.2604167 C12.2569447,11.1909719 12.336805,11.1493056 12.4479167,11.1354167 C12.5520839,11.1354167 12.6388885,11.1666664 12.7083333,11.2291667 L14.1354167,12.6666667 C14.197917,12.7222225 14.2309028,12.7934023 14.234375,12.8802083 C14.2378472,12.9670143 14.2118058,13.0451385 14.15625,13.1145833 C13.3993018,14.0312546 12.4826443,14.7413169 11.40625,15.2447917 C10.3298557,15.7482664 9.19445042,16 8,16 C6.91666125,16 5.88194937,15.7881966 4.89583333,15.3645833 C3.90971729,14.9409701 3.05903135,14.3715314 2.34375,13.65625 C1.62846865,12.9409686 1.0590299,12.0902827 0.635416667,11.1041667 C0.211803437,10.1180506 0,9.08333875 0,8 C0,6.91666125 0.211803437,5.88194938 0.635416667,4.89583333 C1.0590299,3.90971729 1.62846865,3.05903135 2.34375,2.34375 C3.05903135,1.62846865 3.90971729,1.0590299 4.89583333,0.635416667 C5.88194937,0.211803438 6.91666125,0 8,0 C9.02083844,0 10.0086758,0.192706406 10.9635417,0.578125 C11.9184076,0.963543594 12.7673574,1.50694094 13.5104167,2.20833333 L14.8645833,0.864583333 C15.0659732,0.649304479 15.3090264,0.600693854 15.59375,0.71875 C15.8645847,0.836806146 16,1.04166521 16,1.33333333 Z" transform="matrix(-1 0 0 1 16 0)"/>
  </g>
</svg>