<svg xmlns="http://www.w3.org/2000/svg" width="16" height="16" viewBox="0 0 16 16">
  <g fill="none" fill-rule="evenodd">
    <rect width="16" height="16"/>
    <path fill="#000" d="M15.9958631,6.23594932 C16.0056015,6.31047032 15.9980918,6.38623246 15.9739133,6.45739155 L13.5930359,13.4644848 C13.4750013,13.8118692 13.1921072,14.0779235 12.838141,14.1744431 L7.96632474,15.5028918 C7.70487447,15.5741842 7.43513326,15.4200307 7.3638409,15.1585805 C7.34050853,15.0730137 7.34080416,14.9827229 7.36469636,14.8973108 L9.49906542,7.26716317 C9.61827574,6.84099867 9.9804336,6.5271914 10.4192265,6.46984998 L15.4457366,5.81298608 C15.7144479,5.77787091 15.9607479,5.967238 15.9958631,6.23594932 Z M2.60771486,2.07067333 C2.6610644,2.08567667 2.71148679,2.10960932 2.75684197,2.14145552 L8.14224359,5.92282225 C8.52719777,6.19311833 8.69862391,6.67763534 8.56931173,7.12988312 L6.49573191,14.3818827 C6.38398069,14.772714 5.97655709,14.9989531 5.58572584,14.8872018 C5.48395512,14.8581023 5.38965815,14.8073942 5.30926737,14.7385365 L0.385872912,10.5214659 C0.0593395305,10.2417779 -0.0751256305,9.79796599 0.0412702703,9.38408024 L2.00251694,2.41019147 C2.07588239,2.14931533 2.34683873,1.99730789 2.60771486,2.07067333 Z M9.78972749,1.03400755 L15.0181952,4.43967668 C15.1317315,4.51363086 15.1638191,4.66562192 15.0898649,4.77915822 C15.0516442,4.83783562 14.9901709,4.87738393 14.9209286,4.88784189 L9.90744045,5.64505034 C9.62786814,5.68727534 9.34275071,5.62062932 9.11086401,5.45885111 L4.06335586,1.93740357 C3.89666642,1.82111091 3.85581175,1.59170859 3.9721044,1.42501915 C4.03469143,1.3353093 4.13394216,1.27809038 4.24293841,1.26888098 L9.09419917,0.858984009 C9.3390594,0.838295064 9.58382351,0.899887782 9.78972749,1.03400755 Z"/>
  </g>
</svg>
