<svg xmlns="http://www.w3.org/2000/svg" width="16" height="16" viewBox="0 0 16 16">
  <g fill="none" fill-rule="evenodd">
    <rect width="16" height="16" fill="none"/>
    <path fill="#000" d="M13.8333333,10.1818182 C13.8333333,9.78409091 13.5029297,9.45454545 13.1041667,9.45454545 L2.89583333,9.45454545 C2.49707031,9.45454545 2.16666667,9.78409091 2.16666667,10.1818182 C2.16666667,10.375 2.24641927,10.5568182 2.38313802,10.6931818 L7.48730469,15.7840909 C7.62402344,15.9204545 7.8063151,16 8,16 C8.1936849,16 8.37597656,15.9204545 8.51269531,15.7840909 L13.616862,10.6931818 C13.7535807,10.5568182 13.8333333,10.375 13.8333333,10.1818182 Z M13.8333333,5.81818182 C13.8333333,5.625 13.7535807,5.44318182 13.616862,5.30681818 L8.51269531,0.215909091 C8.37597656,0.0795454545 8.1936849,0 8,0 C7.8063151,0 7.62402344,0.0795454545 7.48730469,0.215909091 L2.38313802,5.30681818 C2.24641927,5.44318182 2.16666667,5.625 2.16666667,5.81818182 C2.16666667,6.21590909 2.49707031,6.54545455 2.89583333,6.54545455 L13.1041667,6.54545455 C13.5029297,6.54545455 13.8333333,6.21590909 13.8333333,5.81818182 Z"/>
  </g>
</svg>
