<svg xmlns="http://www.w3.org/2000/svg" width="100%" height="100%" viewBox="0 0 16 16">
  <g fill="none" fill-opacity="1" fill-rule="evenodd">
    <rect width="100%" height="100%" fill="none"/>
    <path fill="#000000" class="icon--graphics" d="M10.6666667,8 C10.6666667,6.53125 9.46875,5.33333333 8,5.33333333 C6.53125,5.33333333 5.33333333,6.53125 5.33333333,8 C5.33333333,9.46875 6.53125,10.6666667 8,10.6666667 C9.46875,10.6666667 10.6666667,9.46875 10.6666667,8 Z M16,6.86458333 L16,9.17708333 C16,9.33333333 15.875,9.52083333 15.7083333,9.55208333 L13.78125,9.84375 C13.6666667,10.1770833 13.5416667,10.4895833 13.375,10.7916667 C13.7291667,11.3020833 14.1041667,11.7604167 14.4895833,12.2291667 C14.5520833,12.3020833 14.59375,12.3958333 14.59375,12.4895833 C14.59375,12.5833333 14.5625,12.65625 14.5,12.7291667 C14.25,13.0625 12.84375,14.59375 12.4895833,14.59375 C12.3958333,14.59375 12.3020833,14.5520833 12.21875,14.5 L10.78125,13.375 C10.4791667,13.53125 10.15625,13.6666667 9.83333333,13.7708333 C9.76041667,14.40625 9.69791667,15.0833333 9.53125,15.7083333 C9.48958333,15.875 9.34375,16 9.15625,16 L6.84375,16 C6.65625,16 6.48958333,15.8645833 6.46875,15.6875 L6.17708333,13.7708333 C5.85416667,13.6666667 5.54166667,13.5416667 5.23958333,13.3854167 L3.77083333,14.5 C3.69791667,14.5625 3.60416667,14.59375 3.51041667,14.59375 C3.41666667,14.59375 3.32291667,14.5520833 3.25,14.4791667 C2.69791667,13.9791667 1.96875,13.3333333 1.53125,12.7291667 C1.47916667,12.65625 1.45833333,12.5729167 1.45833333,12.4895833 C1.45833333,12.3958333 1.48958333,12.3229167 1.54166667,12.25 C1.89583333,11.7708333 2.28125,11.3125 2.63541667,10.8229167 C2.45833333,10.4895833 2.3125,10.1458333 2.20833333,9.79166667 L0.302083333,9.51041667 C0.125,9.47916667 0,9.3125 0,9.13541667 L0,6.82291667 C0,6.66666667 0.125,6.47916667 0.28125,6.44791667 L2.21875,6.15625 C2.32291667,5.82291667 2.45833333,5.51041667 2.625,5.19791667 C2.27083333,4.69791667 1.89583333,4.22916667 1.51041667,3.76041667 C1.44791667,3.6875 1.40625,3.60416667 1.40625,3.51041667 C1.40625,3.41666667 1.44791667,3.34375 1.5,3.27083333 C1.75,2.92708333 3.15625,1.40625 3.51041667,1.40625 C3.60416667,1.40625 3.69791667,1.44791667 3.78125,1.51041667 L5.21875,2.625 C5.52083333,2.46875 5.84375,2.33333333 6.16666667,2.22916667 C6.23958333,1.59375 6.30208333,0.916666667 6.46875,0.291666667 C6.51041667,0.125 6.65625,0 6.84375,0 L9.15625,0 C9.34375,0 9.51041667,0.135416667 9.53125,0.3125 L9.82291667,2.22916667 C10.1458333,2.33333333 10.4583333,2.45833333 10.7604167,2.61458333 L12.2395833,1.5 C12.3020833,1.4375 12.3958333,1.40625 12.4895833,1.40625 C12.5833333,1.40625 12.6770833,1.44791667 12.75,1.51041667 C13.3020833,2.02083333 14.03125,2.66666667 14.46875,3.28125 C14.5208333,3.34375 14.5416667,3.42708333 14.5416667,3.51041667 C14.5416667,3.60416667 14.5104167,3.67708333 14.4583333,3.75 C14.1041667,4.22916667 13.71875,4.6875 13.3645833,5.17708333 C13.5416667,5.51041667 13.6875,5.85416667 13.7916667,6.19791667 L15.6979167,6.48958333 C15.875,6.52083333 16,6.6875 16,6.86458333 Z"/>
  </g>
</svg>
