<svg xmlns="http://www.w3.org/2000/svg" width="16" height="16" viewBox="0 0 16 16">
  <g fill="none" fill-rule="evenodd">
    <rect width="16" height="16" fill="none"/>
    <path fill="#000" d="M4.95535714,11.3482143 L5.65178571,10.0892857 C4.61607143,9.33928571 4,8.13392857 4,6.85714286 C4,6.15178571 4.1875,5.45535714 4.54464286,4.84821429 C3.15178571,5.5625 1.99107143,6.6875 1.14285714,8 C2.07142857,9.4375 3.38392857,10.6428571 4.95535714,11.3482143 Z M8.42857143,4.57142857 C8.42857143,4.33928571 8.23214286,4.14285714 8,4.14285714 C6.50892857,4.14285714 5.28571429,5.36607143 5.28571429,6.85714286 C5.28571429,7.08928571 5.48214286,7.28571429 5.71428571,7.28571429 C5.94642857,7.28571429 6.14285714,7.08928571 6.14285714,6.85714286 C6.14285714,5.83035714 6.98214286,5 8,5 C8.23214286,5 8.42857143,4.80357143 8.42857143,4.57142857 Z M11.6696429,2.86607143 C11.6696429,2.88392857 11.6696429,2.92857143 11.6607143,2.94642857 C9.77678571,6.3125 7.91071429,9.69642857 6.02678571,13.0625 L5.58928571,13.8571429 C5.53571429,13.9464286 5.4375,14 5.33928571,14 C5.17857143,14 4.33035714,13.4821429 4.14285714,13.375 C4.05357143,13.3214286 4,13.2321429 4,13.125 C4,12.9821429 4.30357143,12.5 4.39285714,12.3482143 C2.66071429,11.5625 1.20535714,10.2232143 0.178571429,8.61607143 C0.0625,8.4375 0,8.22321429 0,8 C0,7.78571429 0.0625,7.5625 0.178571429,7.38392857 C1.94642857,4.66964286 4.70535714,2.85714286 8,2.85714286 C8.53571429,2.85714286 9.08035714,2.91071429 9.60714286,3.00892857 L10.0892857,2.14285714 C10.1428571,2.05357143 10.2321429,2 10.3392857,2 C10.5,2 11.3392857,2.51785714 11.5267857,2.625 C11.6160714,2.67857143 11.6696429,2.76785714 11.6696429,2.86607143 Z M12,6.85714286 C12,8.51785714 10.9732143,10 9.42857143,10.5892857 L11.9285714,6.10714286 C11.9732143,6.35714286 12,6.60714286 12,6.85714286 Z M16,8 C16,8.23214286 15.9375,8.41964286 15.8214286,8.61607143 C15.5446429,9.07142857 15.1964286,9.50892857 14.8482143,9.91071429 C13.0982143,11.9196429 10.6875,13.1428571 8,13.1428571 L8.66071429,11.9642857 C11.2589286,11.7410714 13.4642857,10.1607143 14.8571429,8 C14.1964286,6.97321429 13.3482143,6.07142857 12.3392857,5.375 L12.9017857,4.375 C14.0089286,5.11607143 15.125,6.23214286 15.8214286,7.38392857 C15.9375,7.58035714 16,7.76785714 16,8 Z"/>
  </g>
</svg>
