<svg xmlns="http://www.w3.org/2000/svg" width="16" height="16" viewBox="0 0 16 16">
  <g fill="none" fill-rule="evenodd">
    <rect width="16" height="16"/>
    <path fill="#000" d="M8,2.83333333 C11.1696429,2.83333333 14.1785714,4.67216435 15.8214286,7.38107639 C15.9285714,7.56944444 16,7.77575231 16,8 C16,8.22424769 15.9285714,8.43055556 15.8214286,8.61892361 C14.1785714,11.3368056 11.1696429,13.1666667 8,13.1666667 C4.83035714,13.1666667 1.82142857,11.3278356 0.178571429,8.61892361 C0.0714285714,8.43055556 0,8.22424769 0,8 C0,7.77575231 0.0714285714,7.56944444 0.178571429,7.38107639 C1.82142857,4.67216435 4.83035714,2.83333333 8,2.83333333 Z M8,3.87 C5.790861,3.87 4,5.660861 4,7.87 C4,10.079139 5.790861,11.87 8,11.87 C10.209139,11.87 12,10.079139 12,7.87 C12,5.660861 10.209139,3.87 8,3.87 Z M8,5.125 C8.23214286,5.125 8.42857143,5.32233796 8.42857143,5.55555556 C8.42857143,5.78877315 8.23214286,5.98611111 8,5.98611111 C6.98214286,5.98611111 6.14285714,6.82928241 6.14285714,7.85185185 C6.14285714,8.08506944 5.94642857,8.28240741 5.71428571,8.28240741 C5.48214286,8.28240741 5.28571429,8.08506944 5.28571429,7.85185185 C5.28571429,6.35387731 6.50892857,5.125 8,5.125 Z"/>
  </g>
</svg>
