<svg xmlns="http://www.w3.org/2000/svg" width="16" height="16" viewBox="0 0 16 16">
  <g fill="none" fill-rule="evenodd">
    <rect width="16" height="16" fill="none"/>
    <path fill="#000" d="M6.46363819,8 L0.318190949,1.85455276 C-0.10606365,1.43029816 -0.10606365,0.742445548 0.318190949,0.318190949 C0.742445548,-0.10606365 1.43029816,-0.10606365 1.85455276,0.318190949 L8,6.46363819 L14.1454472,0.318190949 C14.5697018,-0.10606365 15.2575545,-0.10606365 15.6818091,0.318190949 C16.1060636,0.742445548 16.1060636,1.43029816 15.6818091,1.85455276 L9.53636181,8 L15.6818091,14.1454472 C16.1060636,14.5697018 16.1060636,15.2575545 15.6818091,15.6818091 C15.2575545,16.1060636 14.5697018,16.1060636 14.1454472,15.6818091 L8,9.53636181 L1.85455276,15.6818091 C1.43029816,16.1060636 0.742445548,16.1060636 0.318190949,15.6818091 C-0.10606365,15.2575545 -0.10606365,14.5697018 0.318190949,14.1454472 L6.46363819,8 Z"/>
  </g>
</svg>
