<svg xmlns="http://www.w3.org/2000/svg" width="16" height="16" viewBox="0 0 16 16">
  <g fill="none" fill-rule="evenodd">
    <rect width="16" height="16"/>
    <path fill="#000" d="M13.5,0 C14.3284271,0 15,0.671572875 15,1.5 L15,14.5 C15,15.3284271 14.3284271,16 13.5,16 L2.5,16 C1.67157288,16 1,15.3284271 1,14.5 L1,1.5 C1,0.671572875 1.67157288,0 2.5,0 L13.5,0 Z M4.5,12 L3.5,12 C3.25454011,12 3.05039163,12.1768752 3.00805567,12.4101244 L3,12.5 L3,13.5 C3,13.7454599 3.17687516,13.9496084 3.41012437,13.9919443 L3.5,14 L4.5,14 C4.74545989,14 4.94960837,13.8231248 4.99194433,13.5898756 L5,13.5 L5,12.5 C5,12.2545401 4.82312484,12.0503916 4.58987563,12.0080557 L4.5,12 Z M12.5,8 L11.5,8 C11.2545401,8 11.0503916,8.17687516 11.0080557,8.41012437 L11,8.5 L11,13.5 C11,13.7454599 11.1768752,13.9496084 11.4101244,13.9919443 L11.5,14 L12.5,14 C12.7454599,14 12.9496084,13.8231248 12.9919443,13.5898756 L13,13.5 L13,8.5 C13,8.25454011 12.8231248,8.05039163 12.5898756,8.00805567 L12.5,8 Z M8.5,12 L7.5,12 C7.25454011,12 7.05039163,12.1768752 7.00805567,12.4101244 L7,12.5 L7,13.5 C7,13.7454599 7.17687516,13.9496084 7.41012437,13.9919443 L7.5,14 L8.5,14 C8.74545989,14 8.94960837,13.8231248 8.99194433,13.5898756 L9,13.5 L9,12.5 C9,12.2545401 8.82312484,12.0503916 8.58987563,12.0080557 L8.5,12 Z M4.5,8 L3.5,8 C3.25454011,8 3.05039163,8.17687516 3.00805567,8.41012437 L3,8.5 L3,9.5 C3,9.74545989 3.17687516,9.94960837 3.41012437,9.99194433 L3.5,10 L4.5,10 C4.74545989,10 4.94960837,9.82312484 4.99194433,9.58987563 L5,9.5 L5,8.5 C5,8.25454011 4.82312484,8.05039163 4.58987563,8.00805567 L4.5,8 Z M8.5,8 L7.5,8 C7.25454011,8 7.05039163,8.17687516 7.00805567,8.41012437 L7,8.5 L7,9.5 C7,9.74545989 7.17687516,9.94960837 7.41012437,9.99194433 L7.5,10 L8.5,10 C8.74545989,10 8.94960837,9.82312484 8.99194433,9.58987563 L9,9.5 L9,8.5 C9,8.25454011 8.82312484,8.05039163 8.58987563,8.00805567 L8.5,8 Z M12.5,2 L3.5,2 C3.25454011,2 3.05039163,2.17687516 3.00805567,2.41012437 L3,2.5 L3,5.5 C3,5.74545989 3.17687516,5.94960837 3.41012437,5.99194433 L3.5,6 L12.5,6 C12.7454599,6 12.9496084,5.82312484 12.9919443,5.58987563 L13,5.5 L13,2.5 C13,2.25454011 12.8231248,2.05039163 12.5898756,2.00805567 L12.5,2 Z"/>
  </g>
</svg>
