<svg xmlns="http://www.w3.org/2000/svg" width="16" height="16" viewBox="0 0 16 16">
  <g fill="none" fill-rule="evenodd">
    <rect width="16" height="16"/>
    <path fill="#000" d="M10.3392857,2 C10.5,2 11.3392857,2.51785714 11.5267857,2.625 C11.6160714,2.67857143 11.6696429,2.76785714 11.6696429,2.86607143 C11.6696429,2.88392857 11.6696429,2.92857143 11.6607143,2.94642857 C10.4047619,5.19047619 8.38095238,8.82738095 5.58928571,13.8571429 C5.53571429,13.9464286 5.4375,14 5.33928571,14 C5.17857143,14 4.33035714,13.4821429 4.14285714,13.375 C4.05357143,13.3214286 4,13.2321429 4,13.125 C4,13.1008268 4.13076471,12.8469526 4.39229413,12.3633773 C2.66585726,11.5777164 1.17230453,10.2574931 0.178571429,8.61892361 C0.0714285714,8.43055556 0,8.22424769 0,8 C0,7.77575231 0.0714285714,7.56944444 0.178571429,7.38107639 C1.82142857,4.67216435 4.83035714,2.83333333 8,2.83333333 C8.54435048,2.83333333 9.08396082,2.88756818 9.61272553,2.99113085 C9.76784838,2.71511061 9.92694402,2.43183488 10.0892857,2.14285714 C10.1428571,2.05357143 10.2321429,2 10.3392857,2 Z M12.8821601,4.33965424 C14.0655421,5.11854333 15.0818934,6.1616547 15.8214286,7.38107639 C15.9285714,7.56944444 16,7.77575231 16,8 C16,8.22424769 15.9285714,8.43055556 15.8214286,8.61892361 C14.1785714,11.3368056 11.1696429,13.1666667 8,13.1666667 L7.97365609,13.1646815 C8.23285847,12.6977584 8.48508923,12.2434815 8.73034837,11.8018508 C10.5908856,11.4600638 12,9.82959006 12,7.87 C12,7.35600926 11.9030548,6.86466129 11.726452,6.41324372 C12.1504919,5.65149265 12.5357307,4.96037426 12.8821601,4.33965424 Z M8,3.87 C5.790861,3.87 4,5.660861 4,7.87 C4,9.01830704 4.48387351,10.0535994 5.2588487,10.7831051 C5.90306159,9.61894207 6.79384175,8.02098189 7.93153985,5.98928609 L8,5.98611111 C6.98214286,5.98611111 6.14285714,6.82928241 6.14285714,7.85185185 C6.14285714,8.08506944 5.94642857,8.28240741 5.71428571,8.28240741 C5.48214286,8.28240741 5.28571429,8.08506944 5.28571429,7.85185185 C5.28571429,6.35387731 6.50892857,5.125 8,5.125 C8.12939815,5.125 8.24769976,5.1863135 8.32707102,5.28097783 C8.55646851,4.87388189 8.79463653,4.44914136 9.04189916,4.00842527 C8.70981428,3.91768345 8.36047567,3.87 8,3.87 Z"/>
  </g>
</svg>
