<svg xmlns="http://www.w3.org/2000/svg" xmlns:xlink="http://www.w3.org/1999/xlink" width="40" height="40" viewBox="0 0 40 40">
  <defs>
    <path id="qr-code-a" d="M1.875,32.5 C2.22017797,32.5 2.5,32.779822 2.5,33.125 L2.5,33.125 L2.5,37.5 L6.875,37.5 C7.22017797,37.5 7.5,37.779822 7.5,38.125 L7.5,38.125 L7.5,39.375 C7.5,39.720178 7.22017797,40 6.875,40 L6.875,40 L0.625,40 C0.279822031,40 0,39.720178 0,39.375 L0,39.375 L0,33.125 C0,32.779822 0.279822031,32.5 0.625,32.5 L0.625,32.5 Z M39.375,32.5 C39.720178,32.5 40,32.779822 40,33.125 L40,39.375 C40,39.720178 39.720178,40 39.375,40 L33.125,40 C32.779822,40 32.5,39.720178 32.5,39.375 L32.5,38.125 C32.5,37.779822 32.779822,37.5 33.125,37.5 L37.5,37.5 L37.5,33.125 C37.5,32.779822 37.779822,32.5 38.125,32.5 L39.375,32.5 Z M6.875,7.10542736e-14 C7.22017797,7.10542736e-14 7.5,0.279822031 7.5,0.625 L7.5,1.875 C7.5,2.22017797 7.22017797,2.5 6.875,2.5 L2.5,2.5 L2.5,6.875 C2.5,7.22017797 2.22017797,7.5 1.875,7.5 L0.625,7.5 C0.279822031,7.5 0,7.22017797 0,6.875 L0,0.625 C0,0.279822031 0.279822031,7.10542736e-14 0.625,7.10542736e-14 L6.875,7.10542736e-14 Z M39.375,7.10542736e-14 C39.720178,7.10542736e-14 40,0.279822031 40,0.625 L40,0.625 L40,6.875 C40,7.22017797 39.720178,7.5 39.375,7.5 L39.375,7.5 L38.125,7.5 C37.779822,7.5 37.5,7.22017797 37.5,6.875 L37.5,6.875 L37.5,2.5 L33.125,2.5 C32.779822,2.5 32.5,2.22017797 32.5,1.875 L32.5,1.875 L32.5,0.625 C32.5,0.279822031 32.779822,7.10542736e-14 33.125,7.10542736e-14 L33.125,7.10542736e-14 Z"/>
    <path id="qr-code-c" d="M11.25,18.75 L11.25,30 L0,30 L0,18.75 L11.25,18.75 Z M16.25,18.75 L16.25,23.125 L18.125,23.125 L18.125,25.625 L16.25,25.625 L16.25,27.5 L18.75,27.5 L18.75,30 L13.75,30 L13.75,18.75 L16.25,18.75 Z M30,20 L30,30 L20,30 L20,27.5 L23.125,27.5 L23.125,25.625 L25.625,25.625 L25.625,27.5 L27.5,27.5 L27.5,20 L30,20 Z M8.75,21.25 L2.5,21.25 L2.5,27.5 L8.75,27.5 L8.75,21.25 Z M6.875,23.125 L6.875,25.625 L4.375,25.625 L4.375,23.125 L6.875,23.125 Z M25,18.75 L25,21.25 L23.125,21.25 L23.125,23.125 L20.625,23.125 L20.625,21.25 L18.75,21.25 L18.75,18.75 L25,18.75 Z M30,13.75 L30,18.125 L27.5,18.125 L27.5,16.25 L24.375,16.25 L24.375,13.75 L30,13.75 Z M2.5,13.75 L2.5,16.25 L0,16.25 L0,13.75 L2.5,13.75 Z M11.25,13.75 L11.25,16.25 L4.375,16.25 L4.375,13.75 L11.25,13.75 Z M21.875,13.75 L21.875,16.25 L13.75,16.25 L13.75,13.75 L21.875,13.75 Z M11.25,-7.10542736e-14 L11.25,11.25 L0,11.25 L0,-7.10542736e-14 L11.25,-7.10542736e-14 Z M30,-7.10542736e-14 L30,11.25 L18.75,11.25 L18.75,-7.10542736e-14 L30,-7.10542736e-14 Z M16.25,4.375 L16.25,11.25 L13.75,11.25 L13.75,4.375 L16.25,4.375 Z M8.75,2.5 L2.5,2.5 L2.5,8.75 L8.75,8.75 L8.75,2.5 Z M27.5,2.5 L21.25,2.5 L21.25,8.75 L27.5,8.75 L27.5,2.5 Z M6.875,4.375 L6.875,6.875 L4.375,6.875 L4.375,4.375 L6.875,4.375 Z M25.625,4.375 L25.625,6.875 L23.125,6.875 L23.125,4.375 L25.625,4.375 Z M16.25,-7.10542736e-14 L16.25,2.5 L13.75,2.5 L13.75,-7.10542736e-14 L16.25,-7.10542736e-14 Z"/>
  </defs>
  <g fill="none" fill-rule="evenodd">
    <rect width="40" height="40"/>
    <mask id="qr-code-b" fill="#fff">
      <use xlink:href="#qr-code-a"/>
    </mask>
    <use fill="#E06CA6" xlink:href="#qr-code-a"/>
    <polygon fill="#FFF" points="40 0 40 40 0 40" mask="url(#qr-code-b)" opacity=".15" transform="rotate(-180 20 20)"/>
    <g transform="translate(5 5)">
      <mask id="qr-code-d" fill="#fff">
        <use xlink:href="#qr-code-c"/>
      </mask>
      <use fill="#3F4C5A" xlink:href="#qr-code-c"/>
      <polygon fill="#FFF" points="35 -5 35 35 -5 35" mask="url(#qr-code-d)" opacity=".15" transform="rotate(-180 15 15)"/>
    </g>
  </g>
</svg>
