<svg xmlns="http://www.w3.org/2000/svg" width="16" height="16" viewBox="0 0 16 16">
  <g fill="none" fill-rule="evenodd">
    <rect width="16" height="16"/>
    <path fill="#000" d="M16,6.90909091 L16,9.09090909 C16,9.39394091 15.8939405,9.65151409 15.6818182,9.86363636 C15.4696959,10.0757586 15.2121227,10.1818182 14.9090909,10.1818182 L1.09090909,10.1818182 C0.787877273,10.1818182 0.530304091,10.0757586 0.318181818,9.86363636 C0.106059545,9.65151409 0,9.39394091 0,9.09090909 L0,6.90909091 C0,6.60605909 0.106059545,6.34848591 0.318181818,6.13636364 C0.530304091,5.92424136 0.787877273,5.81818182 1.09090909,5.81818182 L14.9090909,5.81818182 C15.2121227,5.81818182 15.4696959,5.92424136 15.6818182,6.13636364 C15.8939405,6.34848591 16,6.60605909 16,6.90909091 Z"/>
  </g>
</svg>
