<svg xmlns="http://www.w3.org/2000/svg" width="16" height="16" viewBox="0 0 16 16">
  <g fill="none" fill-rule="evenodd">
    <rect width="16" height="16"/>
    <path fill="#000" d="M16,6.90909091 C16,6.30681818 15.5113636,5.81818182 14.9090909,5.81818182 L10.1818182,5.81818182 L10.1818182,1.09090909 C10.1818182,0.488636364 9.69318182,0 9.09090909,0 L6.90909091,0 C6.30681818,0 5.81818182,0.488636364 5.81818182,1.09090909 L5.81818182,5.81818182 L1.09090909,5.81818182 C0.488636364,5.81818182 0,6.30681818 0,6.90909091 L0,9.09090909 C0,9.69318182 0.488636364,10.1818182 1.09090909,10.1818182 L5.81818182,10.1818182 L5.81818182,14.9090909 C5.81818182,15.5113636 6.30681818,16 6.90909091,16 L9.09090909,16 C9.69318182,16 10.1818182,15.5113636 10.1818182,14.9090909 L10.1818182,10.1818182 L14.9090909,10.1818182 C15.5113636,10.1818182 16,9.69318182 16,9.09090909 L16,6.90909091 Z"/>
  </g>
</svg>
