<svg xmlns="http://www.w3.org/2000/svg" width="16" height="16" viewBox="0 0 16 16">
  <g fill="none" fill-rule="evenodd">
    <rect width="16" height="16" fill="none"/>
    <path fill="#000" d="M14.8571429,8 C14.0089286,6.68142361 12.8482143,5.55121528 11.4553571,4.83362269 C11.8125,5.44357639 12,6.14322917 12,6.85185185 C12,9.06741898 10.2053571,10.8703704 8,10.8703704 C5.79464286,10.8703704 4,9.06741898 4,6.85185185 C4,6.14322917 4.1875,5.44357639 4.54464286,4.83362269 C3.15178571,5.55121528 1.99107143,6.68142361 1.14285714,8 C2.66964286,10.3680556 5.13392857,12.0185185 8,12.0185185 C10.8660714,12.0185185 13.3303571,10.3680556 14.8571429,8 Z M8.42857143,4.55555556 C8.42857143,4.32233796 8.23214286,4.125 8,4.125 C6.50892857,4.125 5.28571429,5.35387731 5.28571429,6.85185185 C5.28571429,7.08506944 5.48214286,7.28240741 5.71428571,7.28240741 C5.94642857,7.28240741 6.14285714,7.08506944 6.14285714,6.85185185 C6.14285714,5.82928241 6.98214286,4.98611111 8,4.98611111 C8.23214286,4.98611111 8.42857143,4.78877315 8.42857143,4.55555556 Z M16,8 C16,8.22424769 15.9285714,8.43055556 15.8214286,8.61892361 C14.1785714,11.3368056 11.1696429,13.1666667 8,13.1666667 C4.83035714,13.1666667 1.82142857,11.3278356 0.178571429,8.61892361 C0.0714285714,8.43055556 0,8.22424769 0,8 C0,7.77575231 0.0714285714,7.56944444 0.178571429,7.38107639 C1.82142857,4.67216435 4.83035714,2.83333333 8,2.83333333 C11.1696429,2.83333333 14.1785714,4.67216435 15.8214286,7.38107639 C15.9285714,7.56944444 16,7.77575231 16,8 Z"/>
  </g>
</svg>
