<svg xmlns="http://www.w3.org/2000/svg" width="16" height="16" viewBox="0 0 16 16">
  <g fill="none" fill-rule="evenodd">
    <rect width="16" height="16" fill="none"/>
    <path fill="#000" d="M8.73401709,3.55487179 L15.2222222,3.55555556 L15.2222222,16 L4.55555556,16 L4.55555556,7.73264957 L8.73333333,7.73333333 L8.73401709,3.55487179 Z M10.2354213,-1.5670005e-13 C10.7677874,-1.5670005e-13 11.199707,0.431919643 11.199707,0.964285714 L11.199707,2.96411133 L7.72591146,2.96411133 L7.72591146,2.96411133 L3.76757812,6.95247396 L3.76719309,7.09662664 C3.76240002,8.2810666 3.7144694,14.4285714 3.7144694,14.4285714 L0.964285714,14.4285714 C0.431919643,14.4285714 3.75096779e-15,13.9966518 3.75096779e-15,13.4642857 L5.70971841e-15,0.964285714 C5.70971841e-15,0.431919643 0.431919643,-1.34473781e-13 0.964285714,-1.34473781e-13 L10.2354213,-1.5670005e-13 Z M8.77354446,1.01785714 L2.45,1.01785714 C2.3171875,1.01785714 2.2,1.16852679 2.2,1.33928571 L2.2,1.66071429 C2.2,1.83147321 2.3171875,1.98214286 2.45,1.98214286 L8.77354446,1.98214286 C8.90635696,1.98214286 9.02354446,1.83147321 9.02354446,1.66071429 L9.02354446,1.33928571 C9.02354446,1.16852679 8.90635696,1.01785714 8.77354446,1.01785714 Z M8.11111111,3.55555556 L4.55555556,7.11111111 L8.11111111,7.11111111 L8.11111111,3.55555556 Z"/>
  </g>
</svg>
